<mxfile host="app.diagrams.net" agent="Mozilla/5.0 (Windows NT 10.0; Win64; x64) AppleWebKit/537.36 (KHTML, like Gecko) Chrome/139.0.0.0 Safari/537.36" version="28.1.0">
  <diagram name="Page-1" id="rPhyDnu-ggu67KVGUOOM">
    <mxGraphModel dx="872" dy="473" grid="1" gridSize="10" guides="1" tooltips="1" connect="1" arrows="1" fold="1" page="1" pageScale="1" pageWidth="850" pageHeight="1100" math="0" shadow="0">
      <root>
        <mxCell id="0" />
        <mxCell id="1" parent="0" />
        <mxCell id="ZfqLB-EADALMnK4RcvD8-1" value="DB Sql Lite&lt;div&gt;&lt;br&gt;&lt;/div&gt;" style="shape=cylinder3;whiteSpace=wrap;html=1;boundedLbl=1;backgroundOutline=1;size=15;" parent="1" vertex="1">
          <mxGeometry x="322" y="180" width="60" height="80" as="geometry" />
        </mxCell>
        <mxCell id="ZfqLB-EADALMnK4RcvD8-2" value="WEB Page&lt;div&gt;&lt;br&gt;&lt;/div&gt;" style="rounded=1;whiteSpace=wrap;html=1;" parent="1" vertex="1">
          <mxGeometry x="292" y="30" width="120" height="60" as="geometry" />
        </mxCell>
        <mxCell id="ZfqLB-EADALMnK4RcvD8-3" value="" style="shape=flexArrow;endArrow=classic;startArrow=classic;html=1;rounded=0;entryX=0.5;entryY=1;entryDx=0;entryDy=0;exitX=0.5;exitY=0;exitDx=0;exitDy=0;exitPerimeter=0;" parent="1" source="ZfqLB-EADALMnK4RcvD8-1" target="ZfqLB-EADALMnK4RcvD8-2" edge="1">
          <mxGeometry width="100" height="100" relative="1" as="geometry">
            <mxPoint x="421" y="180" as="sourcePoint" />
            <mxPoint x="425.96000000000004" y="87" as="targetPoint" />
            <Array as="points">
              <mxPoint x="352" y="140" />
            </Array>
          </mxGeometry>
        </mxCell>
        <mxCell id="ZfqLB-EADALMnK4RcvD8-4" value="&amp;nbsp;Pranit and Rajesh sir" style="rounded=1;whiteSpace=wrap;html=1;fillColor=#dae8fc;strokeColor=#6c8ebf;" parent="1" vertex="1">
          <mxGeometry x="289" y="450" width="126" height="60" as="geometry" />
        </mxCell>
        <mxCell id="ZfqLB-EADALMnK4RcvD8-5" value="Name" style="rounded=0;whiteSpace=wrap;html=1;" parent="1" vertex="1">
          <mxGeometry x="145" y="310" width="60" height="20" as="geometry" />
        </mxCell>
        <mxCell id="ZfqLB-EADALMnK4RcvD8-6" value="Number" style="rounded=0;whiteSpace=wrap;html=1;" parent="1" vertex="1">
          <mxGeometry x="213" y="310" width="60" height="20" as="geometry" />
        </mxCell>
        <mxCell id="ZfqLB-EADALMnK4RcvD8-7" value="Email ID" style="rounded=0;whiteSpace=wrap;html=1;" parent="1" vertex="1">
          <mxGeometry x="291" y="310" width="60" height="20" as="geometry" />
        </mxCell>
        <mxCell id="ZfqLB-EADALMnK4RcvD8-8" value="Installation Issue&amp;nbsp;" style="rounded=0;whiteSpace=wrap;html=1;" parent="1" vertex="1">
          <mxGeometry x="498" y="300" width="70" height="30" as="geometry" />
        </mxCell>
        <mxCell id="ZfqLB-EADALMnK4RcvD8-9" value="Training" style="rounded=0;whiteSpace=wrap;html=1;" parent="1" vertex="1">
          <mxGeometry x="576" y="310" width="60" height="20" as="geometry" />
        </mxCell>
        <mxCell id="ZfqLB-EADALMnK4RcvD8-10" value="Dispatch ID" style="rounded=0;whiteSpace=wrap;html=1;" parent="1" vertex="1">
          <mxGeometry x="423" y="300" width="70" height="30" as="geometry" />
        </mxCell>
        <mxCell id="ZfqLB-EADALMnK4RcvD8-11" value="Add" style="rounded=0;whiteSpace=wrap;html=1;" parent="1" vertex="1">
          <mxGeometry x="355" y="310" width="60" height="20" as="geometry" />
        </mxCell>
        <mxCell id="ZfqLB-EADALMnK4RcvD8-12" value="Dr Nida &amp;amp; Pragya" style="rounded=1;whiteSpace=wrap;html=1;fillColor=#fff2cc;strokeColor=#d6b656;" parent="1" vertex="1">
          <mxGeometry x="444" y="450" width="120" height="60" as="geometry" />
        </mxCell>
        <mxCell id="ZfqLB-EADALMnK4RcvD8-13" value="Bindu" style="rounded=1;whiteSpace=wrap;html=1;fillColor=#f8cecc;strokeColor=#b85450;" parent="1" vertex="1">
          <mxGeometry x="135" y="450" width="120" height="60" as="geometry" />
        </mxCell>
        <mxCell id="ZfqLB-EADALMnK4RcvD8-14" value="" style="endArrow=classic;html=1;rounded=0;fillColor=#f8cecc;strokeColor=#b85450;startSize=14;entryX=0.5;entryY=1;entryDx=0;entryDy=0;" parent="1" target="ZfqLB-EADALMnK4RcvD8-5" edge="1">
          <mxGeometry width="50" height="50" relative="1" as="geometry">
            <mxPoint x="175" y="449" as="sourcePoint" />
            <mxPoint x="176" y="330" as="targetPoint" />
            <Array as="points" />
          </mxGeometry>
        </mxCell>
        <mxCell id="ZfqLB-EADALMnK4RcvD8-15" value="" style="endArrow=classic;html=1;rounded=0;fillColor=#f8cecc;strokeColor=#b85450;startSize=14;entryX=0.5;entryY=1;entryDx=0;entryDy=0;" parent="1" target="ZfqLB-EADALMnK4RcvD8-7" edge="1">
          <mxGeometry width="50" height="50" relative="1" as="geometry">
            <mxPoint x="179" y="450" as="sourcePoint" />
            <mxPoint x="180" y="331" as="targetPoint" />
            <Array as="points" />
          </mxGeometry>
        </mxCell>
        <mxCell id="ZfqLB-EADALMnK4RcvD8-16" value="" style="endArrow=classic;html=1;rounded=0;fillColor=#f8cecc;strokeColor=#b85450;startSize=14;entryX=0.5;entryY=1;entryDx=0;entryDy=0;exitX=0.558;exitY=0;exitDx=0;exitDy=0;exitPerimeter=0;" parent="1" target="ZfqLB-EADALMnK4RcvD8-6" edge="1">
          <mxGeometry width="50" height="50" relative="1" as="geometry">
            <mxPoint x="174.96000000000004" y="450" as="sourcePoint" />
            <mxPoint x="190" y="331" as="targetPoint" />
            <Array as="points" />
          </mxGeometry>
        </mxCell>
        <mxCell id="ZfqLB-EADALMnK4RcvD8-17" value="" style="endArrow=classic;html=1;rounded=0;fillColor=#f8cecc;strokeColor=#b85450;startSize=14;entryX=0.5;entryY=1;entryDx=0;entryDy=0;" parent="1" target="ZfqLB-EADALMnK4RcvD8-11" edge="1">
          <mxGeometry width="50" height="50" relative="1" as="geometry">
            <mxPoint x="176" y="450" as="sourcePoint" />
            <mxPoint x="320" y="330" as="targetPoint" />
            <Array as="points">
              <mxPoint x="279" y="390" />
            </Array>
          </mxGeometry>
        </mxCell>
        <mxCell id="ZfqLB-EADALMnK4RcvD8-18" value="" style="endArrow=classic;html=1;rounded=0;fillColor=#f8cecc;strokeColor=#b85450;startSize=14;entryX=0.414;entryY=1.033;entryDx=0;entryDy=0;exitX=0.583;exitY=0;exitDx=0;exitDy=0;exitPerimeter=0;entryPerimeter=0;" parent="1" target="ZfqLB-EADALMnK4RcvD8-10" edge="1">
          <mxGeometry width="50" height="50" relative="1" as="geometry">
            <mxPoint x="177.96000000000004" y="450" as="sourcePoint" />
            <mxPoint x="465" y="330" as="targetPoint" />
            <Array as="points" />
          </mxGeometry>
        </mxCell>
        <mxCell id="ZfqLB-EADALMnK4RcvD8-19" value="" style="endArrow=classic;html=1;rounded=0;fillColor=#dae8fc;strokeColor=#6c8ebf;startSize=14;entryX=0.4;entryY=0.95;entryDx=0;entryDy=0;entryPerimeter=0;" parent="1" target="ZfqLB-EADALMnK4RcvD8-7" edge="1">
          <mxGeometry width="50" height="50" relative="1" as="geometry">
            <mxPoint x="322.5" y="449" as="sourcePoint" />
            <mxPoint x="323.5" y="330" as="targetPoint" />
            <Array as="points" />
          </mxGeometry>
        </mxCell>
        <mxCell id="ZfqLB-EADALMnK4RcvD8-20" value="" style="endArrow=classic;html=1;rounded=0;fillColor=#dae8fc;strokeColor=#6c8ebf;startSize=14;entryX=0.4;entryY=0.95;entryDx=0;entryDy=0;entryPerimeter=0;" parent="1" target="ZfqLB-EADALMnK4RcvD8-5" edge="1">
          <mxGeometry width="50" height="50" relative="1" as="geometry">
            <mxPoint x="323" y="450" as="sourcePoint" />
            <mxPoint x="179" y="330" as="targetPoint" />
            <Array as="points" />
          </mxGeometry>
        </mxCell>
        <mxCell id="ZfqLB-EADALMnK4RcvD8-21" value="" style="endArrow=classic;html=1;rounded=0;fillColor=#dae8fc;strokeColor=#6c8ebf;startSize=14;entryX=0.367;entryY=0.9;entryDx=0;entryDy=0;entryPerimeter=0;" parent="1" target="ZfqLB-EADALMnK4RcvD8-6" edge="1">
          <mxGeometry width="50" height="50" relative="1" as="geometry">
            <mxPoint x="322.5" y="449" as="sourcePoint" />
            <mxPoint x="249" y="330" as="targetPoint" />
            <Array as="points" />
          </mxGeometry>
        </mxCell>
        <mxCell id="ZfqLB-EADALMnK4RcvD8-22" value="" style="endArrow=classic;html=1;rounded=0;fillColor=#dae8fc;strokeColor=#6c8ebf;startSize=14;" parent="1" target="ZfqLB-EADALMnK4RcvD8-11" edge="1">
          <mxGeometry width="50" height="50" relative="1" as="geometry">
            <mxPoint x="325" y="448" as="sourcePoint" />
            <mxPoint x="326" y="329" as="targetPoint" />
            <Array as="points" />
          </mxGeometry>
        </mxCell>
        <mxCell id="ZfqLB-EADALMnK4RcvD8-23" value="" style="endArrow=classic;html=1;rounded=0;fillColor=#dae8fc;strokeColor=#6c8ebf;startSize=14;entryX=0.5;entryY=1;entryDx=0;entryDy=0;" parent="1" target="ZfqLB-EADALMnK4RcvD8-8" edge="1">
          <mxGeometry width="50" height="50" relative="1" as="geometry">
            <mxPoint x="325" y="450" as="sourcePoint" />
            <mxPoint x="383" y="332" as="targetPoint" />
            <Array as="points" />
          </mxGeometry>
        </mxCell>
        <mxCell id="ZfqLB-EADALMnK4RcvD8-24" value="" style="endArrow=classic;html=1;rounded=0;fillColor=#dae8fc;strokeColor=#6c8ebf;startSize=14;entryX=0.4;entryY=1;entryDx=0;entryDy=0;entryPerimeter=0;" parent="1" target="ZfqLB-EADALMnK4RcvD8-9" edge="1">
          <mxGeometry width="50" height="50" relative="1" as="geometry">
            <mxPoint x="324" y="450" as="sourcePoint" />
            <mxPoint x="611" y="330" as="targetPoint" />
            <Array as="points" />
          </mxGeometry>
        </mxCell>
        <mxCell id="ZfqLB-EADALMnK4RcvD8-25" value="" style="edgeStyle=orthogonalEdgeStyle;rounded=0;orthogonalLoop=1;jettySize=auto;html=1;" parent="1" source="ZfqLB-EADALMnK4RcvD8-26" target="ZfqLB-EADALMnK4RcvD8-4" edge="1">
          <mxGeometry relative="1" as="geometry" />
        </mxCell>
        <mxCell id="ZfqLB-EADALMnK4RcvD8-26" value="Admin" style="rounded=0;whiteSpace=wrap;html=1;" parent="1" vertex="1">
          <mxGeometry x="292" y="610" width="120" height="60" as="geometry" />
        </mxCell>
        <mxCell id="ZfqLB-EADALMnK4RcvD8-27" value="" style="endArrow=classic;html=1;rounded=0;fillColor=#fff2cc;strokeColor=#d6b656;entryX=0.4;entryY=1;entryDx=0;entryDy=0;entryPerimeter=0;" parent="1" target="ZfqLB-EADALMnK4RcvD8-9" edge="1">
          <mxGeometry width="50" height="50" relative="1" as="geometry">
            <mxPoint x="479" y="450" as="sourcePoint" />
            <mxPoint x="609" y="330" as="targetPoint" />
          </mxGeometry>
        </mxCell>
        <mxCell id="ZfqLB-EADALMnK4RcvD8-28" value="" style="endArrow=classic;html=1;rounded=0;fillColor=#fff2cc;strokeColor=#d6b656;entryX=0.5;entryY=1;entryDx=0;entryDy=0;" parent="1" target="ZfqLB-EADALMnK4RcvD8-8" edge="1">
          <mxGeometry width="50" height="50" relative="1" as="geometry">
            <mxPoint x="479" y="450" as="sourcePoint" />
            <mxPoint x="609" y="330" as="targetPoint" />
          </mxGeometry>
        </mxCell>
        <mxCell id="ZfqLB-EADALMnK4RcvD8-29" value="" style="endArrow=classic;html=1;rounded=0;fillColor=#fff2cc;strokeColor=#d6b656;entryX=0.383;entryY=1.05;entryDx=0;entryDy=0;entryPerimeter=0;" parent="1" target="ZfqLB-EADALMnK4RcvD8-7" edge="1">
          <mxGeometry width="50" height="50" relative="1" as="geometry">
            <mxPoint x="479" y="450" as="sourcePoint" />
            <mxPoint x="319" y="330" as="targetPoint" />
          </mxGeometry>
        </mxCell>
        <mxCell id="ZfqLB-EADALMnK4RcvD8-30" value="" style="endArrow=classic;html=1;rounded=0;fillColor=#fff2cc;strokeColor=#d6b656;entryX=0.5;entryY=1;entryDx=0;entryDy=0;" parent="1" target="ZfqLB-EADALMnK4RcvD8-6" edge="1">
          <mxGeometry width="50" height="50" relative="1" as="geometry">
            <mxPoint x="479" y="450" as="sourcePoint" />
            <mxPoint x="319" y="330" as="targetPoint" />
          </mxGeometry>
        </mxCell>
        <mxCell id="ZfqLB-EADALMnK4RcvD8-31" value="" style="endArrow=classic;html=1;rounded=0;fillColor=#fff2cc;strokeColor=#d6b656;entryX=0.5;entryY=1;entryDx=0;entryDy=0;" parent="1" target="ZfqLB-EADALMnK4RcvD8-5" edge="1">
          <mxGeometry width="50" height="50" relative="1" as="geometry">
            <mxPoint x="475" y="450" as="sourcePoint" />
            <mxPoint x="249" y="330" as="targetPoint" />
          </mxGeometry>
        </mxCell>
        <mxCell id="ZfqLB-EADALMnK4RcvD8-32" value="" style="edgeStyle=orthogonalEdgeStyle;rounded=0;orthogonalLoop=1;jettySize=auto;html=1;entryX=0.5;entryY=1;entryDx=0;entryDy=0;fontStyle=1" parent="1" edge="1">
          <mxGeometry relative="1" as="geometry">
            <mxPoint x="352" y="610" as="sourcePoint" />
            <mxPoint x="471" y="510" as="targetPoint" />
            <Array as="points">
              <mxPoint x="352" y="570" />
              <mxPoint x="471" y="570" />
            </Array>
          </mxGeometry>
        </mxCell>
        <mxCell id="ZfqLB-EADALMnK4RcvD8-33" value="" style="edgeStyle=orthogonalEdgeStyle;rounded=0;orthogonalLoop=1;jettySize=auto;html=1;entryX=0.5;entryY=1;entryDx=0;entryDy=0;" parent="1" edge="1">
          <mxGeometry relative="1" as="geometry">
            <mxPoint x="352" y="610" as="sourcePoint" />
            <mxPoint x="215" y="510" as="targetPoint" />
            <Array as="points">
              <mxPoint x="352" y="570" />
              <mxPoint x="216" y="570" />
            </Array>
          </mxGeometry>
        </mxCell>
        <mxCell id="ZfqLB-EADALMnK4RcvD8-34" value="CRUD cmd&lt;div&gt;&lt;br&gt;&lt;/div&gt;" style="rounded=1;whiteSpace=wrap;html=1;" parent="1" vertex="1">
          <mxGeometry x="596" y="380" width="120" height="40" as="geometry" />
        </mxCell>
      </root>
    </mxGraphModel>
  </diagram>
</mxfile>
